<svg version="1.0" xmlns="http://www.w3.org/2000/svg" width="596px" height="227px" viewBox="0 0 5960 2270" preserveAspectRatio="xMidYMid meet">
<g id="layer1" fill="#444444" stroke="none">
<path d="M2355 2259 c-72 -14 -92 -26 -113 -71 -32 -66 -44 -169 -40 -357 2 -93 -1 -166 -5 -162 -14 14 -105 248 -138 353 -39 126 -71 192 -104 214 -21 14 -41 16 -107 11 -74 -5 -84 -8 -112 -36 l-31 -31 -3 -133 c-2 -91 3 -171 16 -257 11 -69 18 -127 16 -129 -4 -5 -67 123 -114 234 -53 124 -125 269 -153 308 -31 41 -67 57 -130 57 -74 0 -120 -21 -141 -64 -9 -19 -16 -41 -16 -50 0 -21 1 -21 -68 18 -130 74 -341 110 -500 87 -98 -14 -109 -19 -170 -74 -59 -55 -101 -119 -128 -192 l-22 -60 -71 -12 c-97 -16 -182 -41 -203 -60 -25 -22 -23 -98 2 -156 29 -65 63 -74 133 -33 45 27 115 42 133 29 6 -4 16 -40 22 -80 27 -162 122 -350 216 -428 23 -19 69 -47 102 -62 53 -25 70 -28 169 -28 130 0 179 17 248 88 53 55 67 99 67 214 0 83 -3 96 -35 161 -61 122 -193 234 -368 312 -87 39 -91 51 -37 88 75 51 222 14 430 -109 79 -47 90 -57 90 -81 0 -67 105 -552 134 -623 19 -45 64 -65 145 -65 120 0 137 49 102 285 -12 77 -21 144 -21 149 0 6 32 -46 71 -115 87 -152 125 -202 190 -250 76 -58 180 -72 221 -31 21 21 23 31 22 140 0 76 -6 138 -17 177 -9 32 -15 60 -14 62 2 1 52 -75 113 -170 92 -144 117 -177 159 -205 46 -31 55 -34 113 -30 52 3 67 9 90 31 27 27 27 30 26 150 -1 84 -11 183 -32 319 -18 109 -32 223 -32 253 0 68 22 125 48 125 24 0 110 -44 143 -73 28 -26 24 3 104 -682 25 -209 54 -426 65 -482 46 -233 171 -526 263 -616 144 -140 359 -157 432 -34 80 138 86 382 14 602 -27 82 -128 286 -183 368 -25 38 -46 70 -46 70 0 1 22 0 50 -1 64 -5 109 11 168 58 132 104 175 289 118 513 -13 52 -31 108 -40 125 -33 65 -24 62 137 -31 59 -35 87 -57 87 -70 0 -41 34 -177 62 -250 59 -154 193 -314 311 -372 114 -55 267 -58 350 -5 69 43 100 116 105 243 5 121 -14 202 -67 285 -68 105 -207 211 -344 263 -32 12 -56 27 -54 33 2 5 23 21 48 34 38 20 53 23 110 19 104 -9 253 -78 378 -177 43 -34 51 -46 51 -74 0 -64 93 -475 128 -566 17 -45 46 -62 114 -67 99 -7 102 -3 108 159 l5 133 34 -60 c90 -161 165 -225 263 -225 58 0 59 0 76 38 14 31 17 73 17 247 0 181 2 214 18 242 38 70 100 68 245 -8 103 -54 132 -59 162 -29 16 16 20 33 20 85 0 86 -17 117 -90 164 -164 107 -360 136 -466 71 -61 -39 -118 -151 -139 -278 -4 -24 -11 -40 -15 -35 -5 4 -52 130 -105 278 -127 354 -158 405 -249 405 -60 0 -103 -29 -132 -87 -15 -29 -28 -53 -30 -53 -2 0 -26 16 -52 34 -70 51 -124 71 -246 91 -161 26 -324 7 -419 -48 -42 -25 -117 -99 -148 -147 l-16 -24 -99 46 c-108 50 -198 82 -342 123 -263 73 -494 70 -639 -10 l-63 -35 -60 36 c-90 52 -214 79 -295 63z m813 -265 c82 -41 138 -125 173 -261 23 -92 24 -133 4 -201 -54 -180 -236 -167 -320 23 -36 80 -76 252 -82 351 l-6 91 29 11 c56 20 146 14 202 -14z m-2463 -355 c93 -52 164 -143 165 -209 0 -14 -9 -40 -20 -57 -28 -47 -64 -44 -123 7 -51 46 -100 133 -118 214 -21 95 -5 102 96 45z m3523 11 c103 -52 168 -146 160 -232 -6 -55 -38 -98 -74 -98 -49 0 -144 151 -174 278 -13 56 -9 82 13 82 8 0 41 -14 75 -30z m-1128 -725 c137 -257 220 -475 220 -580 0 -72 -12 -86 -45 -55 -34 32 -129 224 -155 315 -27 93 -120 465 -120 479 1 19 25 -20 100 -159z"/>
</g>
</svg>